<mxfile host="app.diagrams.net" modified="2023-11-19T21:08:36.979Z" agent="Mozilla/5.0 (Macintosh; Intel Mac OS X 10_15_7) AppleWebKit/537.36 (KHTML, like Gecko) Chrome/119.0.0.0 Safari/537.36 Edg/119.0.0.0" etag="jgZIUeVUPId9qgkEaRm2" version="22.1.3" type="device">
  <diagram name="Page-1" id="82e54ff1-d628-8f03-85c4-9753963a91cd">
    <mxGraphModel dx="2239" dy="687" grid="1" gridSize="10" guides="1" tooltips="1" connect="1" arrows="1" fold="1" page="1" pageScale="1" pageWidth="1100" pageHeight="850" background="none" math="0" shadow="0">
      <root>
        <mxCell id="0" />
        <mxCell id="1" parent="0" />
        <mxCell id="JPUAi3BRtGpKWyzWEo0T-38" value="" style="endArrow=none;dashed=1;html=1;rounded=0;labelBackgroundColor=none;fontColor=#000000;opacity=50;" parent="1" edge="1">
          <mxGeometry width="50" height="50" relative="1" as="geometry">
            <mxPoint y="300" as="sourcePoint" />
            <mxPoint x="1000" y="300" as="targetPoint" />
          </mxGeometry>
        </mxCell>
        <mxCell id="JPUAi3BRtGpKWyzWEo0T-52" value="" style="endArrow=none;dashed=1;html=1;rounded=0;labelBackgroundColor=none;fontColor=#000000;opacity=50;" parent="1" edge="1">
          <mxGeometry width="50" height="50" relative="1" as="geometry">
            <mxPoint y="220" as="sourcePoint" />
            <mxPoint x="1000" y="220" as="targetPoint" />
          </mxGeometry>
        </mxCell>
        <mxCell id="JPUAi3BRtGpKWyzWEo0T-62" value="" style="endArrow=none;dashed=1;html=1;rounded=0;labelBackgroundColor=none;fontColor=#000000;opacity=50;" parent="1" edge="1">
          <mxGeometry width="50" height="50" relative="1" as="geometry">
            <mxPoint y="140" as="sourcePoint" />
            <mxPoint x="1000" y="140" as="targetPoint" />
          </mxGeometry>
        </mxCell>
        <mxCell id="JPUAi3BRtGpKWyzWEo0T-63" value="" style="endArrow=none;dashed=1;html=1;rounded=0;labelBackgroundColor=none;fontColor=#000000;opacity=50;" parent="1" edge="1">
          <mxGeometry width="50" height="50" relative="1" as="geometry">
            <mxPoint y="60" as="sourcePoint" />
            <mxPoint x="1000" y="60" as="targetPoint" />
          </mxGeometry>
        </mxCell>
        <mxCell id="JPUAi3BRtGpKWyzWEo0T-76" value="" style="endArrow=none;html=1;rounded=0;textOpacity=50;fontColor=#c7c7c7;opacity=50;" parent="1" edge="1">
          <mxGeometry width="50" height="50" relative="1" as="geometry">
            <mxPoint x="200" y="400" as="sourcePoint" />
            <mxPoint x="200" as="targetPoint" />
          </mxGeometry>
        </mxCell>
        <mxCell id="JPUAi3BRtGpKWyzWEo0T-77" value="" style="endArrow=none;html=1;rounded=0;textOpacity=50;fontColor=#c7c7c7;opacity=50;" parent="1" edge="1">
          <mxGeometry width="50" height="50" relative="1" as="geometry">
            <mxPoint x="358.95" y="400" as="sourcePoint" />
            <mxPoint x="358.95" as="targetPoint" />
          </mxGeometry>
        </mxCell>
        <mxCell id="JPUAi3BRtGpKWyzWEo0T-78" value="" style="endArrow=none;html=1;rounded=0;textOpacity=50;fontColor=#c7c7c7;opacity=50;" parent="1" edge="1">
          <mxGeometry width="50" height="50" relative="1" as="geometry">
            <mxPoint x="519.63" y="400" as="sourcePoint" />
            <mxPoint x="519.63" as="targetPoint" />
          </mxGeometry>
        </mxCell>
        <mxCell id="JPUAi3BRtGpKWyzWEo0T-79" value="" style="endArrow=none;html=1;rounded=0;textOpacity=50;fontColor=#c7c7c7;opacity=50;" parent="1" edge="1">
          <mxGeometry width="50" height="50" relative="1" as="geometry">
            <mxPoint x="679.63" y="400" as="sourcePoint" />
            <mxPoint x="679.63" as="targetPoint" />
          </mxGeometry>
        </mxCell>
        <mxCell id="JPUAi3BRtGpKWyzWEo0T-80" value="" style="endArrow=none;html=1;rounded=0;textOpacity=50;fontColor=#c7c7c7;opacity=50;" parent="1" edge="1">
          <mxGeometry width="50" height="50" relative="1" as="geometry">
            <mxPoint x="839.63" y="400" as="sourcePoint" />
            <mxPoint x="839.63" as="targetPoint" />
          </mxGeometry>
        </mxCell>
        <mxCell id="JPUAi3BRtGpKWyzWEo0T-1" value="" style="endArrow=classic;html=1;rounded=0;fontColor=#000000;labelBackgroundColor=none;" parent="1" edge="1">
          <mxGeometry width="50" height="50" relative="1" as="geometry">
            <mxPoint y="400" as="sourcePoint" />
            <mxPoint x="1000" y="400" as="targetPoint" />
          </mxGeometry>
        </mxCell>
        <mxCell id="JPUAi3BRtGpKWyzWEo0T-2" value="" style="endArrow=none;html=1;rounded=0;fontColor=#000000;labelBackgroundColor=none;" parent="1" edge="1">
          <mxGeometry width="50" height="50" relative="1" as="geometry">
            <mxPoint x="120" y="400" as="sourcePoint" />
            <mxPoint x="120" y="410" as="targetPoint" />
          </mxGeometry>
        </mxCell>
        <mxCell id="JPUAi3BRtGpKWyzWEo0T-3" value="2013" style="text;html=1;strokeColor=none;fillColor=none;align=center;verticalAlign=middle;whiteSpace=wrap;rounded=0;fontColor=#000000;labelBackgroundColor=none;" parent="1" vertex="1">
          <mxGeometry x="90" y="410" width="60" height="30" as="geometry" />
        </mxCell>
        <mxCell id="JPUAi3BRtGpKWyzWEo0T-4" value="" style="endArrow=none;html=1;rounded=0;fontColor=#000000;labelBackgroundColor=none;" parent="1" edge="1">
          <mxGeometry width="50" height="50" relative="1" as="geometry">
            <mxPoint x="200" y="400" as="sourcePoint" />
            <mxPoint x="200" y="410" as="targetPoint" />
          </mxGeometry>
        </mxCell>
        <mxCell id="JPUAi3BRtGpKWyzWEo0T-5" value="2014" style="text;html=1;strokeColor=none;fillColor=none;align=center;verticalAlign=middle;whiteSpace=wrap;rounded=0;fontColor=#000000;labelBackgroundColor=none;" parent="1" vertex="1">
          <mxGeometry x="170" y="410" width="60" height="30" as="geometry" />
        </mxCell>
        <mxCell id="JPUAi3BRtGpKWyzWEo0T-6" value="" style="endArrow=none;html=1;rounded=0;fontColor=#000000;labelBackgroundColor=none;" parent="1" edge="1">
          <mxGeometry width="50" height="50" relative="1" as="geometry">
            <mxPoint x="280" y="400" as="sourcePoint" />
            <mxPoint x="280" y="410" as="targetPoint" />
          </mxGeometry>
        </mxCell>
        <mxCell id="JPUAi3BRtGpKWyzWEo0T-7" value="2015" style="text;html=1;strokeColor=none;fillColor=none;align=center;verticalAlign=middle;whiteSpace=wrap;rounded=0;fontColor=#000000;labelBackgroundColor=none;" parent="1" vertex="1">
          <mxGeometry x="250" y="410" width="60" height="30" as="geometry" />
        </mxCell>
        <mxCell id="JPUAi3BRtGpKWyzWEo0T-8" value="" style="endArrow=none;html=1;rounded=0;fontColor=#000000;labelBackgroundColor=none;" parent="1" edge="1">
          <mxGeometry width="50" height="50" relative="1" as="geometry">
            <mxPoint x="360" y="400" as="sourcePoint" />
            <mxPoint x="360" y="410" as="targetPoint" />
          </mxGeometry>
        </mxCell>
        <mxCell id="JPUAi3BRtGpKWyzWEo0T-9" value="2016" style="text;html=1;strokeColor=none;fillColor=none;align=center;verticalAlign=middle;whiteSpace=wrap;rounded=0;fontColor=#000000;labelBackgroundColor=none;" parent="1" vertex="1">
          <mxGeometry x="330" y="410" width="60" height="30" as="geometry" />
        </mxCell>
        <mxCell id="JPUAi3BRtGpKWyzWEo0T-10" value="" style="endArrow=none;html=1;rounded=0;fontColor=#000000;labelBackgroundColor=none;" parent="1" edge="1">
          <mxGeometry width="50" height="50" relative="1" as="geometry">
            <mxPoint x="440" y="400" as="sourcePoint" />
            <mxPoint x="440" y="410" as="targetPoint" />
          </mxGeometry>
        </mxCell>
        <mxCell id="JPUAi3BRtGpKWyzWEo0T-11" value="2017" style="text;html=1;strokeColor=none;fillColor=none;align=center;verticalAlign=middle;whiteSpace=wrap;rounded=0;fontColor=#000000;labelBackgroundColor=none;" parent="1" vertex="1">
          <mxGeometry x="410" y="410" width="60" height="30" as="geometry" />
        </mxCell>
        <mxCell id="JPUAi3BRtGpKWyzWEo0T-12" value="" style="endArrow=none;html=1;rounded=0;fontColor=#000000;labelBackgroundColor=none;" parent="1" edge="1">
          <mxGeometry width="50" height="50" relative="1" as="geometry">
            <mxPoint x="520" y="400" as="sourcePoint" />
            <mxPoint x="520" y="410" as="targetPoint" />
          </mxGeometry>
        </mxCell>
        <mxCell id="JPUAi3BRtGpKWyzWEo0T-13" value="2018" style="text;html=1;strokeColor=none;fillColor=none;align=center;verticalAlign=middle;whiteSpace=wrap;rounded=0;fontColor=#000000;labelBackgroundColor=none;" parent="1" vertex="1">
          <mxGeometry x="490" y="410" width="60" height="30" as="geometry" />
        </mxCell>
        <mxCell id="JPUAi3BRtGpKWyzWEo0T-14" value="" style="endArrow=none;html=1;rounded=0;fontColor=#000000;labelBackgroundColor=none;" parent="1" edge="1">
          <mxGeometry width="50" height="50" relative="1" as="geometry">
            <mxPoint x="600" y="400" as="sourcePoint" />
            <mxPoint x="600" y="410" as="targetPoint" />
          </mxGeometry>
        </mxCell>
        <mxCell id="JPUAi3BRtGpKWyzWEo0T-15" value="2019" style="text;html=1;strokeColor=none;fillColor=none;align=center;verticalAlign=middle;whiteSpace=wrap;rounded=0;fontColor=#000000;labelBackgroundColor=none;" parent="1" vertex="1">
          <mxGeometry x="570" y="410" width="60" height="30" as="geometry" />
        </mxCell>
        <mxCell id="JPUAi3BRtGpKWyzWEo0T-16" value="" style="endArrow=none;html=1;rounded=0;fontColor=#000000;labelBackgroundColor=none;" parent="1" edge="1">
          <mxGeometry width="50" height="50" relative="1" as="geometry">
            <mxPoint x="680" y="400" as="sourcePoint" />
            <mxPoint x="680" y="410" as="targetPoint" />
          </mxGeometry>
        </mxCell>
        <mxCell id="JPUAi3BRtGpKWyzWEo0T-17" value="2020" style="text;html=1;strokeColor=none;fillColor=none;align=center;verticalAlign=middle;whiteSpace=wrap;rounded=0;fontColor=#000000;labelBackgroundColor=none;" parent="1" vertex="1">
          <mxGeometry x="650" y="410" width="60" height="30" as="geometry" />
        </mxCell>
        <mxCell id="JPUAi3BRtGpKWyzWEo0T-18" value="" style="endArrow=none;html=1;rounded=0;fontColor=#000000;labelBackgroundColor=none;" parent="1" edge="1">
          <mxGeometry width="50" height="50" relative="1" as="geometry">
            <mxPoint x="760" y="400" as="sourcePoint" />
            <mxPoint x="760" y="410" as="targetPoint" />
          </mxGeometry>
        </mxCell>
        <mxCell id="JPUAi3BRtGpKWyzWEo0T-19" value="2021" style="text;html=1;strokeColor=none;fillColor=none;align=center;verticalAlign=middle;whiteSpace=wrap;rounded=0;fontColor=#000000;labelBackgroundColor=none;" parent="1" vertex="1">
          <mxGeometry x="730" y="410" width="60" height="30" as="geometry" />
        </mxCell>
        <mxCell id="JPUAi3BRtGpKWyzWEo0T-20" value="" style="endArrow=none;html=1;rounded=0;fontColor=#000000;labelBackgroundColor=none;" parent="1" edge="1">
          <mxGeometry width="50" height="50" relative="1" as="geometry">
            <mxPoint x="840" y="400" as="sourcePoint" />
            <mxPoint x="840" y="410" as="targetPoint" />
          </mxGeometry>
        </mxCell>
        <mxCell id="JPUAi3BRtGpKWyzWEo0T-21" value="2022" style="text;html=1;strokeColor=none;fillColor=none;align=center;verticalAlign=middle;whiteSpace=wrap;rounded=0;fontColor=#000000;labelBackgroundColor=none;" parent="1" vertex="1">
          <mxGeometry x="810" y="410" width="60" height="30" as="geometry" />
        </mxCell>
        <mxCell id="JPUAi3BRtGpKWyzWEo0T-22" value="" style="endArrow=none;html=1;rounded=0;fontColor=#000000;labelBackgroundColor=none;" parent="1" edge="1">
          <mxGeometry width="50" height="50" relative="1" as="geometry">
            <mxPoint x="920" y="400" as="sourcePoint" />
            <mxPoint x="920" y="410" as="targetPoint" />
          </mxGeometry>
        </mxCell>
        <mxCell id="JPUAi3BRtGpKWyzWEo0T-23" value="2023" style="text;html=1;strokeColor=none;fillColor=none;align=center;verticalAlign=middle;whiteSpace=wrap;rounded=0;fontColor=#000000;labelBackgroundColor=none;" parent="1" vertex="1">
          <mxGeometry x="890" y="410" width="60" height="30" as="geometry" />
        </mxCell>
        <mxCell id="JPUAi3BRtGpKWyzWEo0T-24" value="" style="endArrow=none;html=1;rounded=0;fontColor=#000000;labelBackgroundColor=none;labelPosition=center;verticalLabelPosition=middle;align=center;verticalAlign=middle;" parent="1" edge="1">
          <mxGeometry width="50" height="50" relative="1" as="geometry">
            <mxPoint x="80" y="440" as="sourcePoint" />
            <mxPoint x="80" as="targetPoint" />
          </mxGeometry>
        </mxCell>
        <mxCell id="JPUAi3BRtGpKWyzWEo0T-25" value="Programming&lt;br style=&quot;font-size: 16px;&quot;&gt;Languages" style="text;html=1;strokeColor=none;fillColor=none;align=center;verticalAlign=middle;whiteSpace=wrap;rounded=0;fontColor=#000000;labelBackgroundColor=none;fontStyle=1;fontSize=16;labelPosition=center;verticalLabelPosition=middle;" parent="1" vertex="1">
          <mxGeometry x="-10" y="245" width="60" height="30" as="geometry" />
        </mxCell>
        <mxCell id="JPUAi3BRtGpKWyzWEo0T-26" value="Frameworks" style="text;html=1;strokeColor=none;fillColor=none;align=center;verticalAlign=middle;whiteSpace=wrap;rounded=0;fontColor=#000000;labelBackgroundColor=none;fontStyle=1;fontSize=16;labelPosition=center;verticalLabelPosition=middle;" parent="1" vertex="1">
          <mxGeometry x="-10" y="165" width="60" height="30" as="geometry" />
        </mxCell>
        <mxCell id="JPUAi3BRtGpKWyzWEo0T-27" value="Roles" style="text;html=1;strokeColor=none;fillColor=none;align=center;verticalAlign=middle;whiteSpace=wrap;rounded=0;fontColor=#000000;labelBackgroundColor=none;fontStyle=1;fontSize=16;labelPosition=center;verticalLabelPosition=middle;" parent="1" vertex="1">
          <mxGeometry x="10" y="10" width="60" height="30" as="geometry" />
        </mxCell>
        <mxCell id="JPUAi3BRtGpKWyzWEo0T-28" value="Cloud" style="text;html=1;strokeColor=none;fillColor=none;align=center;verticalAlign=middle;whiteSpace=wrap;rounded=0;fontColor=#000000;labelBackgroundColor=none;fontStyle=1;fontSize=16;labelPosition=center;verticalLabelPosition=middle;" parent="1" vertex="1">
          <mxGeometry x="10" y="85" width="60" height="30" as="geometry" />
        </mxCell>
        <mxCell id="JPUAi3BRtGpKWyzWEo0T-29" value="Companies" style="text;html=1;strokeColor=none;fillColor=none;align=center;verticalAlign=middle;whiteSpace=wrap;rounded=0;fontColor=#000000;labelBackgroundColor=none;fontStyle=1;fontSize=16;labelPosition=center;verticalLabelPosition=middle;" parent="1" vertex="1">
          <mxGeometry y="340" width="60" height="30" as="geometry" />
        </mxCell>
        <mxCell id="JPUAi3BRtGpKWyzWEo0T-31" value="Teledyne Dalsa" style="rounded=1;whiteSpace=wrap;html=1;gradientColor=none;gradientDirection=east;fillColor=#CCFFFF;fontColor=#000000;labelBackgroundColor=none;labelBorderColor=none;fillStyle=solid;strokeWidth=2;" parent="1" vertex="1">
          <mxGeometry x="90" y="350" width="210" height="30" as="geometry" />
        </mxCell>
        <mxCell id="JPUAi3BRtGpKWyzWEo0T-32" value="GGY | Moody&#39;s Analytics" style="rounded=1;whiteSpace=wrap;html=1;gradientColor=none;gradientDirection=east;fillColor=#CCFFFF;fontColor=#000000;labelBackgroundColor=none;labelBorderColor=none;fillStyle=solid;strokeWidth=2;" parent="1" vertex="1">
          <mxGeometry x="300" y="350" width="170" height="30" as="geometry" />
        </mxCell>
        <mxCell id="JPUAi3BRtGpKWyzWEo0T-33" value="WE Charity" style="rounded=1;whiteSpace=wrap;html=1;gradientColor=none;gradientDirection=east;fillColor=#CCFFFF;fontColor=#000000;labelBackgroundColor=none;labelBorderColor=none;fillStyle=solid;strokeWidth=2;" parent="1" vertex="1">
          <mxGeometry x="470" y="350" width="80" height="30" as="geometry" />
        </mxCell>
        <mxCell id="JPUAi3BRtGpKWyzWEo0T-34" value="Righteous AI Inc." style="rounded=1;whiteSpace=wrap;html=1;gradientColor=none;gradientDirection=east;fillColor=#CCFFFF;fontColor=#000000;labelBackgroundColor=none;labelBorderColor=none;fillStyle=solid;strokeWidth=2;" parent="1" vertex="1">
          <mxGeometry x="550" y="370" width="450" height="20" as="geometry" />
        </mxCell>
        <mxCell id="JPUAi3BRtGpKWyzWEo0T-35" value="Imagine Communications" style="rounded=1;whiteSpace=wrap;html=1;gradientColor=none;gradientDirection=east;fillColor=#CCFFFF;fontColor=#000000;labelBackgroundColor=none;labelBorderColor=none;fillStyle=solid;strokeWidth=2;" parent="1" vertex="1">
          <mxGeometry x="550" y="330" width="110" height="30" as="geometry" />
        </mxCell>
        <mxCell id="JPUAi3BRtGpKWyzWEo0T-36" value="John Hancock | Manulife" style="rounded=1;whiteSpace=wrap;html=1;gradientColor=none;gradientDirection=east;fillColor=#CCFFFF;fontColor=#000000;labelBackgroundColor=none;labelBorderColor=none;fillStyle=solid;strokeWidth=2;" parent="1" vertex="1">
          <mxGeometry x="660" y="310" width="340" height="30" as="geometry" />
        </mxCell>
        <mxCell id="JPUAi3BRtGpKWyzWEo0T-37" value="Telus" style="rounded=1;whiteSpace=wrap;html=1;gradientColor=none;gradientDirection=east;fillColor=#CCFFFF;fontColor=#000000;labelBackgroundColor=none;labelBorderColor=none;fillStyle=solid;strokeWidth=2;" parent="1" vertex="1">
          <mxGeometry x="690" y="340" width="120" height="30" as="geometry" />
        </mxCell>
        <mxCell id="JPUAi3BRtGpKWyzWEo0T-40" value="Python" style="rounded=1;whiteSpace=wrap;html=1;gradientColor=none;gradientDirection=east;fillColor=#CCFFFF;fontColor=#000000;labelBackgroundColor=none;labelBorderColor=none;fillStyle=solid;strokeWidth=2;" parent="1" vertex="1">
          <mxGeometry x="90" y="270" width="210" height="20" as="geometry" />
        </mxCell>
        <mxCell id="JPUAi3BRtGpKWyzWEo0T-41" value="VBA" style="rounded=1;whiteSpace=wrap;html=1;gradientColor=none;gradientDirection=east;fillColor=#CCFFFF;fontColor=#000000;labelBackgroundColor=none;labelBorderColor=none;fillStyle=solid;strokeWidth=2;" parent="1" vertex="1">
          <mxGeometry x="90" y="230" width="380" height="20" as="geometry" />
        </mxCell>
        <mxCell id="JPUAi3BRtGpKWyzWEo0T-42" value="Matlab" style="rounded=1;whiteSpace=wrap;html=1;gradientColor=none;gradientDirection=east;fillColor=#CCFFFF;fontColor=#000000;labelBackgroundColor=none;labelBorderColor=none;fillStyle=solid;strokeWidth=2;" parent="1" vertex="1">
          <mxGeometry x="90" y="250" width="210" height="20" as="geometry" />
        </mxCell>
        <mxCell id="JPUAi3BRtGpKWyzWEo0T-43" value="C++" style="rounded=1;whiteSpace=wrap;html=1;gradientColor=none;gradientDirection=east;fillColor=#CCFFFF;fontColor=#000000;labelBackgroundColor=none;labelBorderColor=none;fillStyle=solid;strokeWidth=2;" parent="1" vertex="1">
          <mxGeometry x="300" y="270" width="170" height="20" as="geometry" />
        </mxCell>
        <mxCell id="JPUAi3BRtGpKWyzWEo0T-44" value="C#" style="rounded=1;whiteSpace=wrap;html=1;gradientColor=none;gradientDirection=east;fillColor=#CCFFFF;fontColor=#000000;labelBackgroundColor=none;labelBorderColor=none;fillStyle=solid;strokeWidth=2;" parent="1" vertex="1">
          <mxGeometry x="360" y="250" width="190" height="20" as="geometry" />
        </mxCell>
        <mxCell id="JPUAi3BRtGpKWyzWEo0T-47" value="C++" style="rounded=1;whiteSpace=wrap;html=1;gradientColor=none;gradientDirection=east;fillColor=#CCFFFF;fontColor=#000000;labelBackgroundColor=none;labelBorderColor=none;fillStyle=solid;strokeWidth=2;" parent="1" vertex="1">
          <mxGeometry x="550" y="270" width="110" height="20" as="geometry" />
        </mxCell>
        <mxCell id="JPUAi3BRtGpKWyzWEo0T-48" value="Python" style="rounded=1;whiteSpace=wrap;html=1;gradientColor=none;gradientDirection=east;fillColor=#CCFFFF;fontColor=#000000;labelBackgroundColor=none;labelBorderColor=none;fillStyle=solid;strokeWidth=2;" parent="1" vertex="1">
          <mxGeometry x="660" y="270" width="340" height="20" as="geometry" />
        </mxCell>
        <mxCell id="JPUAi3BRtGpKWyzWEo0T-49" value="C#" style="rounded=1;whiteSpace=wrap;html=1;gradientColor=none;gradientDirection=east;fillColor=#CCFFFF;fontColor=#000000;labelBackgroundColor=none;labelBorderColor=none;fillStyle=solid;strokeWidth=2;" parent="1" vertex="1">
          <mxGeometry x="740" y="250" width="260" height="20" as="geometry" />
        </mxCell>
        <mxCell id="JPUAi3BRtGpKWyzWEo0T-50" value="VBA" style="rounded=1;whiteSpace=wrap;html=1;gradientColor=none;gradientDirection=east;fillColor=#CCFFFF;fontColor=#000000;labelBackgroundColor=none;labelBorderColor=none;fillStyle=solid;strokeWidth=2;" parent="1" vertex="1">
          <mxGeometry x="710" y="230" width="220" height="20" as="geometry" />
        </mxCell>
        <mxCell id="JPUAi3BRtGpKWyzWEo0T-54" value="ASP.NET" style="rounded=1;whiteSpace=wrap;html=1;gradientColor=none;gradientDirection=east;fillColor=#CCFFFF;fontColor=#000000;labelBackgroundColor=none;labelBorderColor=none;fillStyle=solid;strokeWidth=2;" parent="1" vertex="1">
          <mxGeometry x="470" y="190" width="80" height="20" as="geometry" />
        </mxCell>
        <mxCell id="JPUAi3BRtGpKWyzWEo0T-55" value="ASP.NET | Blazor" style="rounded=1;whiteSpace=wrap;html=1;gradientColor=none;gradientDirection=east;fillColor=#CCFFFF;fontColor=#000000;labelBackgroundColor=none;labelBorderColor=none;fillStyle=solid;strokeWidth=2;" parent="1" vertex="1">
          <mxGeometry x="740" y="190" width="260" height="20" as="geometry" />
        </mxCell>
        <mxCell id="JPUAi3BRtGpKWyzWEo0T-56" value="DJango" style="rounded=1;whiteSpace=wrap;html=1;gradientColor=none;gradientDirection=east;fillColor=#CCFFFF;fontColor=#000000;labelBackgroundColor=none;labelBorderColor=none;fillStyle=solid;strokeWidth=2;" parent="1" vertex="1">
          <mxGeometry x="780" y="150" width="130" height="20" as="geometry" />
        </mxCell>
        <mxCell id="JPUAi3BRtGpKWyzWEo0T-57" value="Angular" style="rounded=1;whiteSpace=wrap;html=1;gradientColor=none;gradientDirection=east;fillColor=#CCFFFF;fontColor=#000000;labelBackgroundColor=none;labelBorderColor=none;fillStyle=solid;strokeWidth=2;" parent="1" vertex="1">
          <mxGeometry x="470" y="150" width="80" height="20" as="geometry" />
        </mxCell>
        <mxCell id="JPUAi3BRtGpKWyzWEo0T-58" value="PHP" style="rounded=1;whiteSpace=wrap;html=1;gradientColor=none;gradientDirection=east;fillColor=#CCFFFF;fontColor=#000000;labelBackgroundColor=none;labelBorderColor=none;fillStyle=solid;strokeWidth=2;" parent="1" vertex="1">
          <mxGeometry x="470" y="270" width="80" height="20" as="geometry" />
        </mxCell>
        <mxCell id="JPUAi3BRtGpKWyzWEo0T-59" value="Docker" style="rounded=1;whiteSpace=wrap;html=1;gradientColor=none;gradientDirection=east;fillColor=#CCFFFF;fontColor=#000000;labelBackgroundColor=none;labelBorderColor=none;fillStyle=solid;strokeWidth=2;" parent="1" vertex="1">
          <mxGeometry x="470" y="170" width="80" height="20" as="geometry" />
        </mxCell>
        <mxCell id="JPUAi3BRtGpKWyzWEo0T-60" value="Docker" style="rounded=1;whiteSpace=wrap;html=1;gradientColor=none;gradientDirection=east;fillColor=#CCFFFF;fontColor=#000000;labelBackgroundColor=none;labelBorderColor=none;fillStyle=solid;strokeWidth=2;" parent="1" vertex="1">
          <mxGeometry x="690" y="170" width="310" height="20" as="geometry" />
        </mxCell>
        <mxCell id="JPUAi3BRtGpKWyzWEo0T-61" value="Java" style="rounded=1;whiteSpace=wrap;html=1;gradientColor=none;gradientDirection=east;fillColor=#CCFFFF;fontColor=#000000;labelBackgroundColor=none;labelBorderColor=none;fillStyle=solid;strokeWidth=2;" parent="1" vertex="1">
          <mxGeometry x="550" y="250" width="110" height="20" as="geometry" />
        </mxCell>
        <mxCell id="JPUAi3BRtGpKWyzWEo0T-64" value="Azure" style="rounded=1;whiteSpace=wrap;html=1;gradientColor=none;gradientDirection=east;fillColor=#CCFFFF;fontColor=#000000;labelBackgroundColor=none;labelBorderColor=none;fillStyle=solid;strokeWidth=2;" parent="1" vertex="1">
          <mxGeometry x="285" y="110" width="715" height="20" as="geometry" />
        </mxCell>
        <mxCell id="JPUAi3BRtGpKWyzWEo0T-65" value="AWS" style="rounded=1;whiteSpace=wrap;html=1;gradientColor=none;gradientDirection=east;fillColor=#CCFFFF;fontColor=#000000;labelBackgroundColor=none;labelBorderColor=none;fillStyle=solid;strokeWidth=2;" parent="1" vertex="1">
          <mxGeometry x="470" y="90" width="80" height="20" as="geometry" />
        </mxCell>
        <mxCell id="JPUAi3BRtGpKWyzWEo0T-66" value="AWS" style="rounded=1;whiteSpace=wrap;html=1;gradientColor=none;gradientDirection=east;fillColor=#CCFFFF;fontColor=#000000;labelBackgroundColor=none;labelBorderColor=none;fillStyle=solid;strokeWidth=2;" parent="1" vertex="1">
          <mxGeometry x="670" y="90" width="80" height="20" as="geometry" />
        </mxCell>
        <mxCell id="JPUAi3BRtGpKWyzWEo0T-67" value="Google Cloud" style="rounded=1;whiteSpace=wrap;html=1;gradientColor=none;gradientDirection=east;fillColor=#CCFFFF;fontColor=#000000;labelBackgroundColor=none;labelBorderColor=none;fillStyle=solid;strokeWidth=2;" parent="1" vertex="1">
          <mxGeometry x="810" y="70" width="190" height="20" as="geometry" />
        </mxCell>
        <mxCell id="JPUAi3BRtGpKWyzWEo0T-68" value="Technician" style="rounded=1;whiteSpace=wrap;html=1;gradientColor=none;gradientDirection=east;fillColor=#CCFFFF;fontColor=#000000;labelBackgroundColor=none;labelBorderColor=none;fillStyle=solid;strokeWidth=2;" parent="1" vertex="1">
          <mxGeometry x="90" y="25" width="210" height="20" as="geometry" />
        </mxCell>
        <mxCell id="JPUAi3BRtGpKWyzWEo0T-69" value="Developer" style="rounded=1;whiteSpace=wrap;html=1;gradientColor=none;gradientDirection=east;fillColor=#CCFFFF;fontColor=#000000;labelBackgroundColor=none;labelBorderColor=none;fillStyle=solid;strokeWidth=2;" parent="1" vertex="1">
          <mxGeometry x="300" y="30" width="370" height="20" as="geometry" />
        </mxCell>
        <mxCell id="JPUAi3BRtGpKWyzWEo0T-70" value="Consultant" style="rounded=1;whiteSpace=wrap;html=1;gradientColor=none;gradientDirection=east;fillColor=#CCFFFF;fontColor=#000000;labelBackgroundColor=none;labelBorderColor=none;fillStyle=solid;strokeWidth=2;" parent="1" vertex="1">
          <mxGeometry x="660" y="10" width="340" height="20" as="geometry" />
        </mxCell>
        <mxCell id="JPUAi3BRtGpKWyzWEo0T-71" value="Team Leader" style="rounded=1;whiteSpace=wrap;html=1;gradientColor=none;gradientDirection=east;fillColor=#CCFFFF;fontColor=#000000;labelBackgroundColor=none;labelBorderColor=none;fillStyle=solid;strokeWidth=2;" parent="1" vertex="1">
          <mxGeometry x="190" y="5" width="110" height="20" as="geometry" />
        </mxCell>
        <mxCell id="JPUAi3BRtGpKWyzWEo0T-72" value="Project Lead" style="rounded=1;whiteSpace=wrap;html=1;gradientColor=none;gradientDirection=east;fillColor=#CCFFFF;fontColor=#000000;labelBackgroundColor=none;labelBorderColor=none;fillStyle=solid;strokeWidth=2;" parent="1" vertex="1">
          <mxGeometry x="360" y="10" width="110" height="20" as="geometry" />
        </mxCell>
      </root>
    </mxGraphModel>
  </diagram>
</mxfile>
